# Made in Blockbench 4.9.4
mtllib test.mtl

o cuboid
v 2.125 0.5 5.25
v 2.125 0.5 -5.25
v 2.125 0 5.25
v 2.125 0 -5.25
v -2.125 0.5 5.25
v -2.125 0.5 -5.25
v -2.125 0 5.25
v -2.125 0 -5.25
vt 0.59765625 1
vt 0.26953125 1
vt 0.26953125 0.984375
vt 0.59765625 0.984375
vt 0.59765625 0.966796875
vt 0.59765625 0.982421875
vt 0.26953125 0.982421875
vt 0.26953125 0.966796875
vt 0 0.671875
vt 0.1328125 0.671875
vt 0.1328125 1
vt 0 1
vt 0.267578125 0.671875
vt 0.267578125 1
vt 0.134765625 1
vt 0.134765625 0.671875
vt 0.40234375 0.94921875
vt 0.40234375 0.96484375
vt 0.26953125 0.96484375
vt 0.26953125 0.94921875
vt 0.40234375 0.947265625
vt 0.26953125 0.947265625
vt 0.26953125 0.931640625
vt 0.40234375 0.931640625
vn 1 0 0
vn -1 0 0
vn 0 1 0
vn 0 -1 0
vn 0 0 1
vn 0 0 -1
usemtl m_a3c46aa7-fedc-4ab6-e1f1-c20a6c116556
f 2/1/1 1/2/1 3/3/1 4/4/1
f 7/5/2 5/6/2 6/7/2 8/8/2
f 5/9/3 1/10/3 2/11/3 6/12/3
f 4/13/4 3/14/4 7/15/4 8/16/4
f 3/17/5 1/18/5 5/19/5 7/20/5
f 6/21/6 2/22/6 4/23/6 8/24/6